<?xml version="1.0" encoding="UTF-8" standalone="no"?>
<!-- Created with Inkscape (http://www.inkscape.org/) -->

<svg
   xmlns:dc="http://purl.org/dc/elements/1.1/"
   xmlns:cc="http://creativecommons.org/ns#"
   xmlns:rdf="http://www.w3.org/1999/02/22-rdf-syntax-ns#"
   xmlns:svg="http://www.w3.org/2000/svg"
   xmlns="http://www.w3.org/2000/svg"
   xmlns:sodipodi="http://sodipodi.sourceforge.net/DTD/sodipodi-0.dtd"
   xmlns:inkscape="http://www.inkscape.org/namespaces/inkscape"
   width="800mm"
   height="600mm"
   viewBox="0 0 800 600"
   version="1.1"
   id="svg8"
   inkscape:version="0.92.3 (2405546, 2018-03-11)"
   sodipodi:docname="UWSocBG1_white.svg">
  <defs
     id="defs2" />
  <sodipodi:namedview
     id="base"
     pagecolor="#ffffff"
     bordercolor="#666666"
     borderopacity="1.0"
     inkscape:pageopacity="0.0"
     inkscape:pageshadow="2"
     inkscape:zoom="0.7"
     inkscape:cx="840.3507"
     inkscape:cy="1091.6113"
     inkscape:document-units="mm"
     inkscape:current-layer="layer1"
     showgrid="false"
     inkscape:window-width="3840"
     inkscape:window-height="2004"
     inkscape:window-x="-16"
     inkscape:window-y="-16"
     inkscape:window-maximized="1" />
  <metadata
     id="metadata5">
    <rdf:RDF>
      <cc:Work
         rdf:about="">
        <dc:format>image/svg+xml</dc:format>
        <dc:type
           rdf:resource="http://purl.org/dc/dcmitype/StillImage" />
        <dc:title></dc:title>
      </cc:Work>
    </rdf:RDF>
  </metadata>
  <g
     inkscape:label="Layer 1"
     inkscape:groupmode="layer"
     id="layer1"
     transform="translate(0,303)">
    <flowRoot
       xml:space="preserve"
       id="flowRoot4532"
       style="font-style:normal;font-variant:normal;font-weight:normal;font-stretch:normal;font-size:53.33333206px;line-height:1.25;font-family:Quattrocento;-inkscape-font-specification:Quattrocento;letter-spacing:0px;word-spacing:0px;fill:#000000;fill-opacity:1;stroke:none"
       transform="matrix(0.26458333,0,0,0.26458333,0,-303)"><flowRegion
         id="flowRegion4534"><rect
           id="rect4536"
           width="515.71429"
           height="130.71428"
           x="108.57144"
           y="2148.4309" /></flowRegion><flowPara
         id="flowPara4538"
         style="font-weight:bold;font-size:82.66667175px" /></flowRoot>    <g
       aria-label="UW Sociology"
       style="font-style:normal;font-variant:normal;font-weight:normal;font-stretch:normal;font-size:22.57777786px;line-height:1.25;font-family:Quattrocento;-inkscape-font-specification:Quattrocento;letter-spacing:0px;word-spacing:0px;fill:#ffffff;fill-opacity:1;stroke:none;stroke-width:0.26458332"
       id="text4552"
       transform="translate(1.0583333)">
      <path
         d="m 44.462906,275.51298 -0.06773,0.4064 -0.09031,0.0903 q -0.361244,0 -0.699911,0.0452 -0.316089,0.0226 -0.519289,0.18062 -0.180622,0.15805 -0.338667,0.4064 -0.158044,0.24836 -0.2032,0.88054 -0.02258,0.27093 -0.04516,0.54186 0,0.27094 -0.02258,0.65476 0,0.38382 0,0.92569 0,0.54186 0,1.33209 v 4.33493 q 0,1.10631 -0.338667,2.07715 -0.316088,0.94827 -0.993422,1.67076 -0.677333,0.69991 -1.715911,1.10631 -1.016,0.4064 -2.393244,0.4064 -1.580445,0 -2.686756,-0.4064 -1.083733,-0.4064 -1.761067,-1.10631 -0.677333,-0.72249 -0.993422,-1.67076 -0.293511,-0.97084 -0.293511,-2.07715 v -4.33493 q 0,-0.79023 0,-1.33209 0,-0.54187 0,-0.92569 0,-0.38382 -0.02258,-0.65476 0,-0.27093 -0.02258,-0.54186 -0.04516,-0.6096 -0.225778,-0.85796 -0.158045,-0.27093 -0.338667,-0.42898 -0.2032,-0.15804 -0.519289,-0.18062 -0.316089,-0.0452 -0.677333,-0.0452 l -0.112889,-0.0903 -0.06773,-0.4064 0.04515,-0.0903 q 0.158045,0 0.519289,0.0226 0.361244,0.0226 0.745067,0.0452 0.383822,0.0226 0.745066,0.0451 0.361245,0.0226 0.519289,0.0226 h 0.428978 q 0.158045,0 0.519289,-0.0226 0.361244,-0.0226 0.745067,-0.0451 0.383822,-0.0226 0.745066,-0.0452 0.361245,-0.0226 0.519289,-0.0226 l 0.04516,0.0903 -0.06773,0.4064 -0.09031,0.0903 q -0.361244,0 -0.699911,0.0452 -0.316089,0.0226 -0.519289,0.18062 -0.180622,0.15805 -0.338666,0.4064 -0.158045,0.24836 -0.2032,0.88054 -0.02258,0.31608 -0.04516,0.58702 0,0.27093 -0.02258,0.63218 0,0.36124 0,0.88053 0,0.51929 0,1.33209 v 3.72533 q 0,2.4384 1.083734,3.49956 1.106311,1.06115 3.048,1.06115 1.941689,0 3.048,-1.06115 1.106311,-1.06116 1.106311,-3.49956 v -3.72533 q 0,-0.8128 0,-1.33209 0,-0.51929 -0.02258,-0.88053 0,-0.36125 -0.02258,-0.63218 0,-0.27094 -0.02258,-0.58702 -0.04516,-0.63218 -0.225777,-0.88054 -0.158045,-0.24835 -0.338667,-0.4064 -0.180622,-0.15804 -0.519289,-0.18062 -0.316089,-0.0452 -0.677333,-0.0452 l -0.112889,-0.0903 -0.06773,-0.4064 0.04515,-0.0903 q 0.158045,0 0.474133,0.0226 0.316089,0.0226 0.654756,0.0452 0.361244,0.0226 0.677333,0.0451 0.316089,0.0226 0.474134,0.0226 h 0.496711 q 0.158044,0 0.496711,-0.0226 0.338667,-0.0226 0.699911,-0.0451 0.383822,-0.0226 0.722489,-0.0452 0.338667,-0.0226 0.496711,-0.0226 z"
         style="font-style:normal;font-variant:normal;font-weight:normal;font-stretch:normal;font-size:22.57777786px;font-family:Quattrocento;-inkscape-font-specification:Quattrocento;fill:#ffffff;fill-opacity:1;stroke-width:0.26458332"
         id="path4554"
         inkscape:connector-curvature="0" />
      <path
         d="m 51.860655,290.57236 -3.680178,-10.25031 q -0.248356,-0.67733 -0.428978,-1.12889 -0.158044,-0.45155 -0.293511,-0.76764 -0.112889,-0.31609 -0.2032,-0.51929 -0.09031,-0.2032 -0.158044,-0.38382 -0.248356,-0.56445 -0.519289,-0.85796 -0.248356,-0.31609 -0.519289,-0.45156 -0.270934,-0.15804 -0.564445,-0.18062 -0.270933,-0.0226 -0.564444,-0.0226 l -0.112889,-0.0903 -0.04516,-0.4064 0.02258,-0.0903 q 0.158045,0 0.451556,0.0226 0.316089,0.0226 0.654755,0.0452 0.338667,0.0226 0.654756,0.0451 0.316089,0.0226 0.474133,0.0226 h 0.767645 q 0.158044,0 0.519289,-0.0226 0.361244,-0.0226 0.745066,-0.0451 0.4064,-0.0226 0.767645,-0.0452 0.361244,-0.0226 0.519289,-0.0226 l 0.04516,0.0903 -0.06773,0.4064 -0.112889,0.0903 q -0.654756,0 -1.016,0.15805 -0.361245,0.13547 -0.361245,0.79022 0,0.51929 0.338667,1.46756 0.361245,0.92569 0.880533,2.34809 l 1.535289,4.15431 q 0.428978,1.17404 0.745067,2.12231 0.338667,0.92569 0.6096,1.60302 0.248356,-0.65476 0.587022,-1.55787 0.361245,-0.90311 0.8128,-2.16746 l 1.535289,-4.15431 q 0.316089,-0.88054 0.564445,-1.55787 0.270933,-0.67733 0.451555,-1.2192 -0.112889,-0.36125 -0.270933,-0.69991 -0.135467,-0.33867 -0.361245,-0.6096 -0.2032,-0.27094 -0.541866,-0.45156 -0.338667,-0.18062 -0.835378,-0.22578 l -0.112889,-0.0903 -0.04516,-0.4064 0.02258,-0.0903 q 0.158045,0 0.451556,0.0226 0.316089,0.0226 0.632178,0.0452 0.338666,0.0226 0.632177,0.0451 0.316089,0.0226 0.474134,0.0226 h 0.745066 q 0.158045,0 0.496711,-0.0226 0.338667,-0.0226 0.722489,-0.0451 0.383823,-0.0226 0.722489,-0.0452 0.338667,-0.0226 0.496711,-0.0226 l 0.04516,0.0903 -0.06773,0.4064 -0.112889,0.0903 q -0.248356,0 -0.541867,0.0903 -0.270933,0.0677 -0.519289,0.22577 -0.225778,0.15805 -0.383822,0.38383 -0.135467,0.22577 -0.135467,0.51928 0,0.22578 0.04516,0.31609 0.135466,0.56445 0.428978,1.35467 0.316088,0.79022 0.699911,1.87396 l 1.535289,4.15431 q 0.428977,1.15146 0.767644,2.12231 0.338667,0.94826 0.587022,1.60302 0.248356,-0.65476 0.587022,-1.55787 0.361245,-0.90311 0.8128,-2.16746 l 1.535289,-4.15431 q 0.519289,-1.4224 0.857956,-2.34809 0.361244,-0.94827 0.361244,-1.46756 0,-0.65475 -0.361244,-0.79022 -0.361244,-0.15805 -1.016,-0.15805 l -0.09031,-0.0903 -0.06773,-0.4064 0.04516,-0.0903 q 0.158044,0 0.496711,0.0226 0.338667,0.0226 0.699911,0.0452 0.361245,0.0226 0.699911,0.0451 0.338667,0.0226 0.496712,0.0226 h 0.428977 q 0.158045,0 0.451556,-0.0226 0.316089,-0.0226 0.654755,-0.0451 0.338667,-0.0226 0.654756,-0.0452 0.316089,-0.0226 0.474133,-0.0226 l 0.04516,0.0903 -0.06773,0.4064 -0.112889,0.0903 q -0.293511,0 -0.564445,0.0226 -0.270933,0.0226 -0.541866,0.18062 -0.270934,0.13547 -0.541867,0.45156 -0.248356,0.29351 -0.519289,0.85796 -0.06773,0.18062 -0.2032,0.45155 -0.112889,0.27093 -0.4064,1.016 -0.293511,0.74507 -0.857956,2.14489 -0.541866,1.37724 -1.467555,3.77049 -0.316089,0.79022 -0.654756,1.64818 -0.316089,0.83537 -0.632178,1.60302 -0.293511,0.74507 -0.519288,1.33209 -0.225778,0.58702 -0.316089,0.83538 l -1.174045,0.24835 h -0.270933 l -3.928533,-10.88249 q -0.316089,0.79022 -0.8128,2.032 -0.474134,1.24178 -1.2192,3.18347 -0.293512,0.79022 -0.632178,1.64818 -0.338667,0.83537 -0.654756,1.60302 -0.293511,0.74507 -0.519289,1.33209 -0.225777,0.58702 -0.316089,0.83538 l -1.174044,0.24835 z"
         style="font-style:normal;font-variant:normal;font-weight:normal;font-stretch:normal;font-size:22.57777786px;font-family:Quattrocento;-inkscape-font-specification:Quattrocento;fill:#ffffff;fill-opacity:1;stroke-width:0.26458332"
         id="path4556"
         inkscape:connector-curvature="0" />
      <path
         d="m 77.438455,278.85449 q 0,0.63218 0.225778,1.06116 0.225777,0.4064 0.677333,0.72249 0.474133,0.31609 1.174044,0.58702 0.722489,0.24836 1.693334,0.54187 0.835378,0.27093 1.648178,0.6096 0.8128,0.33866 1.444977,0.88053 0.654756,0.51929 1.038578,1.28693 0.383822,0.74507 0.383822,1.8288 0,1.15147 -0.451555,1.96427 -0.451556,0.79022 -1.196622,1.28693 -0.745067,0.49672 -1.738489,0.72249 -0.970845,0.22578 -2.054578,0.22578 -1.399822,0 -2.551289,-0.31609 -1.151467,-0.31609 -2.077156,-0.79022 l -0.09031,-0.29351 0.383822,-2.41582 h 0.564445 l 0.112889,0.13546 q 0.112889,1.37725 1.106311,2.032 0.993422,0.63218 2.709333,0.63218 1.761067,0 2.6416,-0.79022 0.903111,-0.8128 0.903111,-2.09973 0,-0.79023 -0.338666,-1.30952 -0.338667,-0.54186 -0.903111,-0.90311 -0.541867,-0.38382 -1.264356,-0.63217 -0.699911,-0.24836 -1.4224,-0.49672 -0.903111,-0.29351 -1.693333,-0.63217 -0.767645,-0.36125 -1.354667,-0.83538 -0.564444,-0.47413 -0.903111,-1.12889 -0.316089,-0.65476 -0.316089,-1.55787 0,-1.06115 0.361244,-1.78364 0.383823,-0.74507 1.038578,-1.19662 0.654756,-0.47414 1.512711,-0.67734 0.880534,-0.2032 1.896534,-0.2032 1.2192,0 2.302933,0.22578 1.083733,0.22578 1.761067,0.54187 l 0.09031,0.24835 -0.316089,2.00943 h -0.632178 l -0.112889,-0.11289 q -0.04515,-0.58703 -0.383822,-0.94827 -0.338667,-0.36124 -0.8128,-0.56444 -0.451555,-0.2032 -0.993422,-0.27094 -0.519289,-0.0677 -0.925689,-0.0677 -1.467556,0 -2.302933,0.65475 -0.835378,0.63218 -0.835378,1.8288 z"
         style="font-style:normal;font-variant:normal;font-weight:normal;font-stretch:normal;font-size:22.57777786px;font-family:Quattrocento;-inkscape-font-specification:Quattrocento;fill:#ffffff;fill-opacity:1;stroke-width:0.26458332"
         id="path4558"
         inkscape:connector-curvature="0" />
      <path
         d="m 93.328272,279.59956 q 1.332089,0 2.370667,0.47413 1.038577,0.45156 1.738489,1.24178 0.722488,0.76765 1.083733,1.78365 0.383822,1.016 0.383822,2.09973 0,1.03858 -0.338667,2.00942 -0.338666,0.97085 -1.038577,1.71591 -0.699911,0.74507 -1.738489,1.19663 -1.038578,0.45155 -2.415822,0.45155 -1.4224,0 -2.483556,-0.47413 -1.061156,-0.47414 -1.761067,-1.24178 -0.677333,-0.76764 -1.016,-1.73849 -0.338666,-0.99342 -0.338666,-2.032 0,-1.10631 0.383822,-2.09973 0.383822,-0.99342 1.083733,-1.73849 0.722489,-0.76765 1.738489,-1.19662 1.038578,-0.45156 2.348089,-0.45156 z m 0.02258,10.09227 q 0.948266,0 1.670755,-0.38382 0.722489,-0.38383 1.196623,-1.016 0.474133,-0.63218 0.699911,-1.4224 0.248355,-0.8128 0.248355,-1.67076 0,-0.8128 -0.270933,-1.64818 -0.248356,-0.83538 -0.745067,-1.49013 -0.496711,-0.67733 -1.2192,-1.08373 -0.722489,-0.42898 -1.670755,-0.42898 -0.993423,0 -1.715911,0.4064 -0.699912,0.38382 -1.174045,1.016 -0.451555,0.63218 -0.677333,1.44498 -0.225778,0.8128 -0.225778,1.6256 0,0.83537 0.248356,1.67075 0.270933,0.8128 0.767644,1.49013 0.496711,0.65476 1.2192,1.08374 0.722489,0.4064 1.648178,0.4064 z"
         style="font-style:normal;font-variant:normal;font-weight:normal;font-stretch:normal;font-size:22.57777786px;font-family:Quattrocento;-inkscape-font-specification:Quattrocento;fill:#ffffff;fill-opacity:1;stroke-width:0.26458332"
         id="path4560"
         inkscape:connector-curvature="0" />
      <path
         d="m 109.58392,282.35405 -0.0903,-0.0677 q 0,-0.51929 -0.31608,-0.83538 -0.29352,-0.33867 -0.72249,-0.51929 -0.42898,-0.18062 -0.92569,-0.24836 -0.47414,-0.0677 -0.83538,-0.0677 -1.03858,0 -1.80622,0.38382 -0.74507,0.36125 -1.24178,0.99343 -0.49671,0.6096 -0.74507,1.4224 -0.22577,0.79022 -0.22577,1.6256 0,0.85795 0.24835,1.64817 0.27093,0.79023 0.8128,1.39983 0.54187,0.6096 1.35467,0.97084 0.8128,0.36124 1.94169,0.36124 0.76764,0 1.69333,-0.22577 0.94827,-0.24836 1.6256,-0.6096 l 0.22578,0.22577 -0.33867,0.63218 q -0.24835,0.18062 -0.65475,0.38382 -0.38383,0.18063 -0.88054,0.36125 -0.49671,0.15804 -1.08373,0.27093 -0.56445,0.11289 -1.12889,0.11289 -1.10631,0 -2.12231,-0.38382 -0.99342,-0.4064 -1.76107,-1.10631 -0.74506,-0.72249 -1.19662,-1.71591 -0.45156,-1.016 -0.45156,-2.2352 0,-1.24178 0.45156,-2.25778 0.45156,-1.016 1.24178,-1.73849 0.79022,-0.72249 1.8288,-1.12889 1.06115,-0.4064 2.25778,-0.4064 1.08373,0 2.032,0.27093 0.97084,0.27094 1.46755,0.54187 l 0.0677,0.2032 -0.24835,1.73849 z"
         style="font-style:normal;font-variant:normal;font-weight:normal;font-stretch:normal;font-size:22.57777786px;font-family:Quattrocento;-inkscape-font-specification:Quattrocento;fill:#ffffff;fill-opacity:1;stroke-width:0.26458332"
         id="path4562"
         inkscape:connector-curvature="0" />
      <path
         d="m 117.14218,290.41432 q -0.15804,0 -0.47413,-0.0226 -0.31609,-0.0226 -0.67734,-0.0452 -0.36124,0 -0.67733,-0.0226 -0.31609,0 -0.47413,0 h -0.31609 q -0.15805,0 -0.49671,0 -0.31609,0.0226 -0.67734,0.0226 -0.33866,0.0226 -0.67733,0.0452 -0.31609,0.0226 -0.47413,0.0226 l -0.0226,-0.0903 0.0226,-0.31609 0.0903,-0.0903 q 0.36124,0 0.69991,-0.0226 0.36124,-0.0452 0.54187,-0.22578 0.18062,-0.15804 0.22577,-0.4064 0.0677,-0.24836 0.11289,-0.69991 0.0226,-0.36125 0.0452,-0.72249 0.0226,-0.38382 0.0226,-1.19662 v -2.77707 q 0,-0.47413 0,-0.79022 0,-0.33867 -0.0226,-0.58702 0,-0.24836 -0.0226,-0.45156 0,-0.2032 -0.0226,-0.42898 -0.0451,-0.24835 -0.13546,-0.42897 -0.0903,-0.2032 -0.15805,-0.27094 -0.22578,-0.27093 -0.56444,-0.31609 -0.33867,-0.0677 -0.69991,-0.0677 l -0.0903,-0.0903 v -0.31609 l 0.0903,-0.0677 h 0.4064 q 0.38382,0 0.97084,0 0.58702,-0.0226 1.016,-0.0903 l 0.79022,-0.11289 0.13547,0.2032 q -0.0452,0.0903 -0.0903,0.31609 -0.0226,0.22577 -0.0452,0.49671 0,0.24835 -0.0226,0.49671 0,0.24835 0,0.38382 0,0.18062 -0.0226,0.36124 0,0.15805 0,0.38383 0,0.22577 -0.0226,0.54186 0,0.31609 0,0.8128 v 2.52871 q 0,0.49672 0,0.8128 0.0226,0.31609 0.0226,0.54187 0.0226,0.22578 0.0226,0.42898 0.0226,0.18062 0.0452,0.4064 0.0452,0.47413 0.0903,0.72249 0.0677,0.22578 0.24836,0.38382 0.18062,0.15804 0.49671,0.2032 0.33867,0.0452 0.67733,0.0452 l 0.11289,0.11288 0.0452,0.29352 z m -3.79307,-14.33689 q 0,-0.45156 0.29352,-0.76765 0.31608,-0.33866 0.76764,-0.33866 0.45156,0 0.76764,0.33866 0.33867,0.31609 0.33867,0.76765 0,0.45155 -0.33867,0.76764 -0.31608,0.29351 -0.76764,0.29351 -0.45156,0 -0.76764,-0.29351 -0.29352,-0.31609 -0.29352,-0.76764 z"
         style="font-style:normal;font-variant:normal;font-weight:normal;font-stretch:normal;font-size:22.57777786px;font-family:Quattrocento;-inkscape-font-specification:Quattrocento;fill:#ffffff;fill-opacity:1;stroke-width:0.26458332"
         id="path4564"
         inkscape:connector-curvature="0" />
      <path
         d="m 124.24043,279.59956 q 1.33209,0 2.37066,0.47413 1.03858,0.45156 1.73849,1.24178 0.72249,0.76765 1.08374,1.78365 0.38382,1.016 0.38382,2.09973 0,1.03858 -0.33867,2.00942 -0.33867,0.97085 -1.03858,1.71591 -0.69991,0.74507 -1.73849,1.19663 -1.03857,0.45155 -2.41582,0.45155 -1.4224,0 -2.48355,-0.47413 -1.06116,-0.47414 -1.76107,-1.24178 -0.67733,-0.76764 -1.016,-1.73849 -0.33867,-0.99342 -0.33867,-2.032 0,-1.10631 0.38383,-2.09973 0.38382,-0.99342 1.08373,-1.73849 0.72249,-0.76765 1.73849,-1.19662 1.03858,-0.45156 2.34809,-0.45156 z m 0.0226,10.09227 q 0.94827,0 1.67076,-0.38382 0.72249,-0.38383 1.19662,-1.016 0.47414,-0.63218 0.69991,-1.4224 0.24836,-0.8128 0.24836,-1.67076 0,-0.8128 -0.27093,-1.64818 -0.24836,-0.83538 -0.74507,-1.49013 -0.49671,-0.67733 -1.2192,-1.08373 -0.72249,-0.42898 -1.67076,-0.42898 -0.99342,0 -1.71591,0.4064 -0.69991,0.38382 -1.17404,1.016 -0.45156,0.63218 -0.67734,1.44498 -0.22577,0.8128 -0.22577,1.6256 0,0.83537 0.24835,1.67075 0.27094,0.8128 0.76765,1.49013 0.49671,0.65476 1.2192,1.08374 0.72249,0.4064 1.64817,0.4064 z"
         style="font-style:normal;font-variant:normal;font-weight:normal;font-stretch:normal;font-size:22.57777786px;font-family:Quattrocento;-inkscape-font-specification:Quattrocento;fill:#ffffff;fill-opacity:1;stroke-width:0.26458332"
         id="path4566"
         inkscape:connector-curvature="0" />
      <path
         d="m 131.44238,273.90996 0.0903,-0.0903 h 0.4064 q 0.38383,0 0.97085,0 0.58702,-0.0226 1.016,-0.0903 l 0.8128,-0.11289 0.13546,0.2032 q -0.0452,0.0903 -0.0677,0.33867 -0.0226,0.22577 -0.0451,0.49671 -0.0226,0.27093 -0.0452,0.51929 0,0.24835 0,0.38382 -0.0226,0.36124 -0.0452,0.67733 0,0.31609 -0.0226,0.74507 0,0.42898 0,1.03858 0,0.6096 0,1.55786 v 4.92196 q 0,0.94827 0,1.55787 0.0226,0.6096 0.0226,1.03857 0.0226,0.42898 0.0226,0.74507 0.0226,0.31609 0.0452,0.72249 0.0452,0.47413 0.0903,0.72249 0.0677,0.22578 0.24835,0.38382 0.18063,0.15804 0.49672,0.2032 0.33866,0.0452 0.67733,0.0452 l 0.11289,0.11288 0.0452,0.29352 -0.0452,0.0903 q -0.15805,0 -0.47414,-0.0226 -0.31608,-0.0226 -0.67733,-0.0452 -0.36124,0 -0.67733,-0.0226 -0.31609,0 -0.47414,0 h -0.31608 q -0.15805,0 -0.49672,0 -0.31608,0.0226 -0.67733,0.0226 -0.33867,0.0226 -0.67733,0.0452 -0.31609,0.0226 -0.47414,0.0226 l -0.0226,-0.0903 0.0226,-0.31609 0.0903,-0.0903 q 0.36124,0 0.69991,-0.0226 0.36124,-0.0452 0.54186,-0.22578 0.18063,-0.15804 0.22578,-0.4064 0.0677,-0.24836 0.11289,-0.69991 0.0226,-0.29351 0.0226,-0.58702 0.0226,-0.29351 0.0226,-0.67734 0.0226,-0.4064 0.0226,-0.92569 0,-0.54186 0,-1.33208 v -5.41867 q 0,-0.92569 0,-1.55787 0,-0.65475 -0.0226,-1.12889 0,-0.47413 -0.0226,-0.83537 0,-0.36125 -0.0226,-0.72249 -0.0226,-0.24836 -0.13547,-0.42898 -0.0903,-0.18062 -0.15804,-0.27093 -0.22578,-0.24836 -0.56445,-0.31609 -0.33866,-0.0677 -0.69991,-0.0677 l -0.0903,-0.0903 z"
         style="font-style:normal;font-variant:normal;font-weight:normal;font-stretch:normal;font-size:22.57777786px;font-family:Quattrocento;-inkscape-font-specification:Quattrocento;fill:#ffffff;fill-opacity:1;stroke-width:0.26458332"
         id="path4568"
         inkscape:connector-curvature="0" />
      <path
         d="m 143.51091,279.59956 q 1.33209,0 2.37067,0.47413 1.03858,0.45156 1.73849,1.24178 0.72249,0.76765 1.08373,1.78365 0.38382,1.016 0.38382,2.09973 0,1.03858 -0.33866,2.00942 -0.33867,0.97085 -1.03858,1.71591 -0.69991,0.74507 -1.73849,1.19663 -1.03858,0.45155 -2.41582,0.45155 -1.4224,0 -2.48356,-0.47413 -1.06115,-0.47414 -1.76106,-1.24178 -0.67734,-0.76764 -1.016,-1.73849 -0.33867,-0.99342 -0.33867,-2.032 0,-1.10631 0.38382,-2.09973 0.38382,-0.99342 1.08373,-1.73849 0.72249,-0.76765 1.73849,-1.19662 1.03858,-0.45156 2.34809,-0.45156 z m 0.0226,10.09227 q 0.94827,0 1.67076,-0.38382 0.72248,-0.38383 1.19662,-1.016 0.47413,-0.63218 0.69991,-1.4224 0.24835,-0.8128 0.24835,-1.67076 0,-0.8128 -0.27093,-1.64818 -0.24835,-0.83538 -0.74507,-1.49013 -0.49671,-0.67733 -1.2192,-1.08373 -0.72248,-0.42898 -1.67075,-0.42898 -0.99342,0 -1.71591,0.4064 -0.69991,0.38382 -1.17405,1.016 -0.45155,0.63218 -0.67733,1.44498 -0.22578,0.8128 -0.22578,1.6256 0,0.83537 0.24836,1.67075 0.27093,0.8128 0.76764,1.49013 0.49671,0.65476 1.2192,1.08374 0.72249,0.4064 1.64818,0.4064 z"
         style="font-style:normal;font-variant:normal;font-weight:normal;font-stretch:normal;font-size:22.57777786px;font-family:Quattrocento;-inkscape-font-specification:Quattrocento;fill:#ffffff;fill-opacity:1;stroke-width:0.26458332"
         id="path4570"
         inkscape:connector-curvature="0" />
      <path
         d="m 153.53509,287.25343 q -1.2192,-0.45156 -1.76107,-1.4224 -0.54186,-0.97085 -0.54186,-2.14489 0,-0.83538 0.29351,-1.58045 0.29351,-0.74506 0.83537,-1.28693 0.56445,-0.56444 1.33209,-0.88053 0.79023,-0.31609 1.78365,-0.31609 0.58702,0 1.15146,0.11289 0.58703,0.11289 1.016,0.31609 0.94827,-0.0226 1.76107,-0.11289 0.83538,-0.0903 1.55787,-0.29351 l 0.11289,0.0903 -0.15805,1.24178 -0.11289,0.11288 -2.05457,-0.0903 -0.0226,0.0677 q 0.58702,0.47413 0.85795,1.24177 0.27094,0.76765 0.27094,1.49014 0,0.74506 -0.29351,1.4224 -0.27094,0.67733 -0.8128,1.19662 -0.54187,0.49671 -1.35467,0.8128 -0.8128,0.29351 -1.87396,0.29351 -0.18062,0 -0.45155,0 -0.27094,-0.0226 -0.45156,-0.0226 -0.38382,0.15805 -0.58702,0.42898 -0.18062,0.27093 -0.18062,0.45156 0,0.22577 0.29351,0.4064 0.31609,0.15804 0.99342,0.22577 l 2.19005,0.22578 q 0.74506,0.0903 1.37724,0.31609 0.65476,0.22578 1.12889,0.6096 0.49671,0.36125 0.76764,0.88053 0.27094,0.54187 0.27094,1.24178 0,0.65476 -0.29351,1.30951 -0.29352,0.67734 -0.88054,1.19663 -0.58702,0.49671 -1.6256,0.8128 -1.03858,0.31608 -2.39324,0.31608 -1.2192,0 -2.12231,-0.27093 -0.88054,-0.24835 -1.49014,-0.69991 -0.58702,-0.42898 -0.88053,-0.99342 -0.29351,-0.54187 -0.29351,-1.12889 0,-0.94827 0.6096,-1.69333 0.63218,-0.72249 1.60302,-1.016 l 0.0226,-0.0677 q -0.49671,-0.2032 -0.79022,-0.49671 -0.29351,-0.31609 -0.29351,-0.76764 0,-0.58703 0.47413,-0.94827 0.47413,-0.36124 1.016,-0.49671 z m 2.032,-0.67734 q 0.63218,0 1.10631,-0.22577 0.49671,-0.22578 0.83538,-0.6096 0.33866,-0.38383 0.51929,-0.88054 0.18062,-0.51929 0.18062,-1.06115 0,-0.56445 -0.18062,-1.12889 -0.18063,-0.56445 -0.54187,-1.016 -0.33867,-0.45156 -0.85796,-0.74507 -0.51928,-0.29351 -1.19662,-0.29351 -0.65475,0 -1.15146,0.27093 -0.47414,0.27094 -0.8128,0.69992 -0.31609,0.42897 -0.47414,0.97084 -0.15804,0.51929 -0.15804,1.03858 0,0.54186 0.15804,1.08373 0.18062,0.51929 0.51929,0.94827 0.36125,0.42898 0.85796,0.69991 0.51929,0.24835 1.19662,0.24835 z m -0.72249,3.8608 q -0.63218,0.0226 -1.10631,0.22578 -0.47413,0.2032 -0.8128,0.49671 -0.31609,0.31609 -0.47413,0.67734 -0.15805,0.38382 -0.15805,0.74506 0,0.85796 0.94827,1.39983 0.94826,0.54186 2.57386,0.54186 0.74507,0 1.37725,-0.13546 0.63218,-0.11289 1.08373,-0.38383 0.47414,-0.24835 0.74507,-0.63217 0.27093,-0.36125 0.27093,-0.85796 0,-0.54187 -0.27093,-0.88053 -0.24836,-0.33867 -0.67733,-0.56445 -0.4064,-0.2032 -0.94827,-0.31609 -0.51929,-0.0903 -1.03858,-0.15804 z"
         style="font-style:normal;font-variant:normal;font-weight:normal;font-stretch:normal;font-size:22.57777786px;font-family:Quattrocento;-inkscape-font-specification:Quattrocento;fill:#ffffff;fill-opacity:1;stroke-width:0.26458332"
         id="path4572"
         inkscape:connector-curvature="0" />
      <path
         d="m 162.47271,295.49432 q 0.31609,0 0.58703,-0.0226 0.29351,-0.0226 0.56444,-0.11289 0.27093,-0.0677 0.51929,-0.24836 0.27093,-0.18062 0.58702,-0.49671 0.42898,-0.45155 0.74507,-0.97084 0.31609,-0.49671 0.51929,-1.016 l 0.72249,-1.8288 -1.55787,-4.08658 q -0.0903,-0.2032 -0.31609,-0.74507 -0.2032,-0.54186 -0.47413,-1.19662 -0.27094,-0.67733 -0.56445,-1.37724 -0.27093,-0.69991 -0.47413,-1.24178 -0.22578,-0.54187 -0.4064,-0.85796 -0.22578,-0.36124 -0.51929,-0.56444 -0.27093,-0.2032 -0.74507,-0.24836 l -0.13546,-0.11288 v -0.31609 l 0.0903,-0.0903 q 0.38382,0.0452 0.8128,0.0903 0.42898,0.0451 0.79022,0.0451 h 0.88053 q 0.36125,0 0.85796,-0.0451 0.51929,-0.0452 0.97084,-0.0903 l 0.0903,0.0903 v 0.27093 l -0.0903,0.0903 q -0.49671,0.0452 -0.83537,0.27093 -0.31609,0.2032 -0.31609,0.6096 0,0.27094 0.2032,0.97085 0.22578,0.67733 0.49671,1.46755 0.27093,0.76765 0.51929,1.44498 0.24835,0.67734 0.33866,0.88054 l 1.12889,2.93511 1.06116,-2.59645 q 0.15804,-0.38382 0.42898,-1.03858 0.27093,-0.65475 0.54186,-1.39982 0.27094,-0.74506 0.45156,-1.44498 0.2032,-0.72248 0.2032,-1.2192 0,-0.49671 -0.36125,-0.65475 -0.36124,-0.18062 -0.8128,-0.22578 l -0.0903,-0.0903 v -0.27093 l 0.0903,-0.0903 q 0.88054,0.13546 1.64818,0.13546 h 0.92569 q 0.38382,0 0.72249,-0.0451 0.36124,-0.0452 0.79022,-0.0903 l 0.0903,0.0903 v 0.31609 l -0.11289,0.11288 q -0.4064,0.0452 -0.63217,0.22578 -0.2032,0.18062 -0.45156,0.58702 -0.2032,0.36125 -0.47413,0.90312 -0.24836,0.54186 -0.51929,1.17404 -0.24836,0.63218 -0.51929,1.28693 -0.24836,0.65476 -0.47413,1.2192 -0.2032,0.56445 -0.36125,0.99343 -0.13546,0.4064 -0.2032,0.56444 l -2.21262,5.50898 q -0.58702,1.46755 -1.60302,2.16746 -0.99342,0.72249 -2.16747,1.016 -0.22578,0.0452 -0.4064,0.0452 -0.18062,0.0226 -0.4064,0.0226 l -0.18062,-0.0452 -0.0452,-0.54186 z"
         style="font-style:normal;font-variant:normal;font-weight:normal;font-stretch:normal;font-size:22.57777786px;font-family:Quattrocento;-inkscape-font-specification:Quattrocento;fill:#ffffff;fill-opacity:1;stroke-width:0.26458332"
         id="path4574"
         inkscape:connector-curvature="0" />
    </g>
    <path
       style="fill:none;stroke:#ffffff;stroke-width:2.5;stroke-linecap:butt;stroke-linejoin:miter;stroke-opacity:1;stroke-miterlimit:4;stroke-dasharray:none"
       d="M 176.39789,289.78371 H 791.51871 V -294.6011 H 8.41899 v 584.2512 h 20.579753"
       id="path4578"
       inkscape:connector-curvature="0" />
  </g>
</svg>
